<?xml version="1.0" standalone="no"?>
<!DOCTYPE svg PUBLIC "-//W3C//DTD SVG 20010904//EN"
 "http://www.w3.org/TR/2001/REC-SVG-20010904/DTD/svg10.dtd">
<svg version="1.0" xmlns="http://www.w3.org/2000/svg"
 width="512.000000pt" height="512.000000pt" viewBox="0 0 512.000000 512.000000"
 preserveAspectRatio="xMidYMid meet">
<metadata>
Created by potrace 1.11, written by Peter Selinger 2001-2013
</metadata>
<g transform="translate(0.000000,512.000000) scale(0.100000,-0.100000)"
fill="#000000" stroke="none">
<path d="M878 5100 c-49 -27 -86 -77 -96 -131 -4 -24 -8 -155 -7 -291 0 -215
-2 -248 -15 -249 -8 -1 -150 -2 -315 -3 -314 -3 -337 -6 -383 -49 -98 -91 -70
-251 53 -303 27 -11 99 -14 347 -15 l313 0 0 -657 0 -657 -310 -1 c-171 0
-321 -4 -335 -8 -73 -24 -134 -110 -129 -184 5 -74 61 -146 129 -168 14 -4
164 -8 335 -8 l310 -1 0 -655 0 -655 -314 -3 c-283 -2 -318 -4 -357 -21 -109
-49 -135 -196 -50 -289 49 -55 57 -56 391 -58 171 -1 315 -2 320 -3 6 -1 10
-100 10 -274 1 -249 3 -275 20 -311 43 -86 146 -127 230 -91 51 21 72 41 98
90 19 37 20 58 20 312 0 239 2 272 16 275 14 3 1275 2 1292 -1 3 -1 6 -124 6
-274 1 -255 2 -276 21 -313 33 -64 96 -103 167 -103 39 -1 104 30 133 62 43
47 48 79 47 361 0 146 2 267 5 267 3 1 298 2 657 3 l652 1 3 -285 c3 -263 5
-288 23 -318 59 -97 201 -119 282 -42 55 51 57 64 60 359 2 151 6 277 8 280 3
3 110 5 238 6 261 1 270 3 328 75 53 66 44 186 -18 240 -54 47 -80 51 -324 51
-126 0 -229 3 -229 7 -1 9 -1 1159 0 1242 l0 66 213 -1 c236 0 277 5 324 41
121 92 77 290 -72 321 -22 5 -136 8 -252 8 -140 0 -213 3 -213 10 -1 12 -1
1157 0 1242 l0 62 229 0 c233 0 259 4 312 42 61 43 85 149 49 219 -22 44 -70
87 -108 97 -15 4 -129 8 -255 8 l-227 0 0 65 c-2 460 -4 503 -29 541 -76 112
-232 115 -308 7 l-28 -41 -5 -286 -5 -285 -653 -1 c-358 0 -652 2 -653 5 -1 3
-2 127 -3 275 -3 282 -6 308 -49 353 -54 59 -154 76 -225 38 -35 -18 -77 -75
-87 -118 -4 -15 -8 -146 -9 -290 l-1 -262 -645 -1 c-355 -1 -650 1 -656 3 -8
2 -11 77 -10 250 1 271 -4 321 -41 370 -49 65 -155 90 -225 52z m1577 -1700
l0 -655 -655 0 -655 0 -2 645 c-1 355 0 650 2 657 3 10 152 12 657 10 l653 -2
0 -655z m1683 2 l-3 -657 -655 0 -655 -1 1 651 c1 357 2 653 3 658 0 4 296 7
656 7 l655 -1 -2 -657z m-1682 -1684 l1 -658 -656 3 -656 2 -1 650 c-1 358 2
652 7 655 4 3 299 5 656 5 l648 0 1 -657z m1684 0 l0 -657 -657 2 -658 2 0
640 c0 352 1 647 3 655 3 14 76 16 658 16 l654 0 0 -658z"/>
</g>
</svg>
